<svg width="61" height="42" viewBox="0 0 61 42" fill="none" xmlns="http://www.w3.org/2000/svg">
<path d="M36.7856 9.99426H24.1782V32.0093H36.7856V9.99426Z" fill="#FF5F00"/>
<path d="M24.9786 21C24.9786 16.5356 27.1319 12.5572 30.4819 9.99444C28.0324 8.12 24.9386 7 21.5766 7C13.6199 7 7.16814 13.2689 7.16814 21C7.16814 28.7311 13.6199 35 21.5766 35C24.9386 35 28.0284 33.88 30.4819 32.0056C27.1319 29.4428 24.9786 25.4644 24.9786 21Z" fill="#EB001B"/>
<path d="M53.7957 21C53.7957 28.7311 47.3439 35 39.3872 35C36.0252 35 32.9354 33.88 30.482 32.0056C33.8319 29.4428 35.9852 25.4644 35.9852 21C35.9852 16.5356 33.8319 12.5572 30.482 9.99444C32.9314 8.12 36.0252 7 39.3872 7C47.3439 7 53.7957 13.2689 53.7957 21Z" fill="#F79E1B"/>
<path d="M52.419 29.676V29.2249H52.6071V29.1315H52.1308V29.2249H52.3189V29.676H52.419ZM53.3435 29.676V29.1315H53.1994L53.0313 29.5049L52.8632 29.1315H52.7152V29.676H52.8192V29.2676L52.9753 29.6215H53.0834L53.2395 29.2676V29.6799H53.3435V29.676Z" fill="#F79E1B"/>
</svg>
