<svg xmlns="http://www.w3.org/2000/svg" width="46" height="17" viewBox="0 0 46 17"><g><g><g/><g><path fill="red" d="M4.565 9.21l-2.64 5.723H0l2.9-6.12C1.536 8.146.628 6.935.628 4.7.628 1.566 2.683 0 5.128 0h2.488v14.932H5.951V9.211zM5.95 1.358h-.888c-1.34 0-2.64.857-2.64 3.34 0 2.403 1.19 3.176 2.64 3.176h.888z"/></g><g><path fill="#1d1d1f" d="M15.643 4.406v10.526h-1.666v-4.72h-2.51v4.72H9.78V4.406h1.687v4.47h2.51v-4.47zM22.804 17v-2.068h-4.673V17h-1.514v-3.404h.671c.994-2.235 1.103-5.492 1.103-8.29v-.9h5.063v9.19h.866V17zm-2.9-11.279v.188c0 2.214-.108 5.45-1.015 7.685h2.9V5.721zm9.066 9.357c-2.25 0-3.634-1.733-3.634-4.969 0-3.384.974-5.849 3.29-5.849 1.816 0 3.007 1.315 3.007 4.888v.898H27.09c0 2.381.693 3.634 2.033 3.634.953 0 1.71-.418 2.142-.711l.39 1.252c-.693.523-1.602.857-2.685.857zm.931-6.37c0-1.795-.303-3.112-1.276-3.112-1.039 0-1.407 1.233-1.515 3.113zm5.15.981v5.243h-1.687V4.406h1.687v4.867l2.618-4.867h1.709l-2.705 4.95 3.095 5.576h-1.84zm4.931-.019c0-3.3 1.321-5.41 3.873-5.41.972 0 1.535.25 2.012.543l-.239 1.545c-.454-.376-1.102-.731-1.795-.731-1.213 0-2.077 1.315-2.077 3.968 0 2.632.65 4.135 2.012 4.135.823 0 1.449-.314 1.839-.648l.39 1.21c-.585.481-1.276.795-2.272.795-2.335.001-3.743-1.815-3.743-5.407z"/></g></g></g></svg>